HIERARCHY
ROOT joint_Root
{
	OFFSET 0.0 0.0 0.0
	CHANNELS 6 Xposition Yposition Zposition Zrotation Xrotation Yrotation 
	JOINT Hips
	{
		OFFSET -0.726466 93.3139 -2.00062
		CHANNELS 6 Xposition Yposition Zposition Zrotation Xrotation Yrotation 
		JOINT Spine
		{
			OFFSET 15.7357 0.0 0.0
			CHANNELS 6 Xposition Yposition Zposition Zrotation Xrotation Yrotation 
			JOINT Chest
			{
				OFFSET 8.98455 -0.406207 0.0
				CHANNELS 6 Xposition Yposition Zposition Zrotation Xrotation Yrotation 
				JOINT Neck
				{
					OFFSET 16.3773 0.0 0.0
					CHANNELS 6 Xposition Yposition Zposition Zrotation Xrotation Yrotation 
					JOINT Head
					{
						OFFSET 6.45672 0.0 0.0
						CHANNELS 6 Xposition Yposition Zposition Zrotation Xrotation Yrotation 
						End Site
						{
							OFFSET 0.0 0.0 0.0
						}
					}
				}
				JOINT Shoulder_L
				{
					OFFSET 12.9942 -0.242716 4.98039
					CHANNELS 6 Xposition Yposition Zposition Zrotation Xrotation Yrotation 
					JOINT UpperArm_L
					{
						OFFSET 5.34809 0.0 0.0
						CHANNELS 6 Xposition Yposition Zposition Zrotation Xrotation Yrotation 
						JOINT LowerArm_L
						{
							OFFSET 24.3286 1.87007e-05 0.0
							CHANNELS 6 Xposition Yposition Zposition Zrotation Xrotation Yrotation 
							JOINT Hand_L
							{
								OFFSET 22.2916 0.0 0.0
								CHANNELS 6 Xposition Yposition Zposition Zrotation Xrotation Yrotation 
								End Site
								{
									OFFSET 0.0 0.0 0.0
								}
							}
						}
					}
				}
				JOINT Shoulder_R
				{
					OFFSET 12.9945 -0.242716 -4.98039
					CHANNELS 6 Xposition Yposition Zposition Zrotation Xrotation Yrotation 
					JOINT UpperArm_R
					{
						OFFSET -5.34813 0.0 0.0
						CHANNELS 6 Xposition Yposition Zposition Zrotation Xrotation Yrotation 
						JOINT LowerArm_R
						{
							OFFSET -24.3289 0.000322201 0.0
							CHANNELS 6 Xposition Yposition Zposition Zrotation Xrotation Yrotation 
							JOINT Hand_R
							{
								OFFSET -22.2915 -0.000108084 0.0
								CHANNELS 6 Xposition Yposition Zposition Zrotation Xrotation Yrotation 
								End Site
								{
									OFFSET 0.0 0.0 0.0
								}
							}
						}
					}
				}
			}
		}
		JOINT UpperLeg_L
		{
			OFFSET -2.19248 -6.46944 0.0
			CHANNELS 6 Xposition Yposition Zposition Zrotation Xrotation Yrotation 
			JOINT LowerLeg_L
			{
				OFFSET 39.0811 0.0 -1.23785e-05
				CHANNELS 6 Xposition Yposition Zposition Zrotation Xrotation Yrotation 
				JOINT Foot_L
				{
					OFFSET 40.9854 0.0 -1.26872e-05
					CHANNELS 6 Xposition Yposition Zposition Zrotation Xrotation Yrotation 
					JOINT Toes_L
					{
						OFFSET 11.7543 0.0 0.0
						CHANNELS 6 Xposition Yposition Zposition Zrotation Xrotation Yrotation 
						End Site
						{
							OFFSET 0.0 0.0 0.0
						}
					}
				}
			}
		}
		JOINT UpperLeg_R
		{
			OFFSET -2.19251 6.46944 0.0
			CHANNELS 6 Xposition Yposition Zposition Zrotation Xrotation Yrotation 
			JOINT LowerLeg_R
			{
				OFFSET -39.0811 -0.00228153 -0.0401928
				CHANNELS 6 Xposition Yposition Zposition Zrotation Xrotation Yrotation 
				JOINT Foot_R
				{
					OFFSET -40.9854 0.0 0.0
					CHANNELS 6 Xposition Yposition Zposition Zrotation Xrotation Yrotation 
					JOINT Toes_R
					{
						OFFSET -11.7543 0.0 0.0
						CHANNELS 6 Xposition Yposition Zposition Zrotation Xrotation Yrotation 
						End Site
						{
							OFFSET 0.0 0.0 0.0
						}
					}
				}
			}
		}
	}
}
MOTION
Frames:	4
Frame Time:	0.0333333
0.000000 0.000000 0.000000 0.000000 0.000000 -0.000000 0.827924 92.139700 -1.837610 87.425100 -4.477880 2.932540 15.735700 0.000005 -0.000001 90.261800 85.054200 -92.618600 8.984550 -0.406207 -0.000000 2.133060 0.160908 -4.711960 16.377300 -0.000001 -0.000001 2.087510 -2.034280 -0.565173 6.456720 -0.000001 -0.000000 -6.008650 -1.072090 -4.245080 12.994200 -0.242716 4.980390 -87.480300 -6.509820 -68.786300 5.348090 -0.000007 -0.000001 2.111200 74.599200 -52.013100 24.328600 0.000019 0.000005 17.340000 0.318077 -88.981400 22.291600 -0.000001 0.000005 39.628600 5.580430 -32.006100 12.994500 -0.242716 -4.980390 92.347000 -4.874270 -64.248700 -5.348130 -0.000001 -0.000004 -56.808400 -55.184300 -91.620200 -24.328900 0.000322 -0.000009 0.082294 0.133734 -31.950200 -22.291500 -0.000108 -0.000004 20.671200 5.405300 -3.110660 -2.192480 -6.469440 -0.000000 -169.238000 -18.272700 -2.939620 39.081100 -0.000007 -0.000012 -0.185722 0.455006 22.204300 40.985400 -0.000006 -0.000013 -5.807730 0.764659 -64.070500 11.754300 -0.000000 0.000003 -0.000178 -0.001677 -16.641000 -2.192510 6.469440 -0.000001 173.972000 18.050400 178.093000 -39.081100 -0.002282 -0.040193 0.034636 -0.093127 18.584200 -40.985400 0.000008 0.000006 -1.679030 4.255660 -61.556600 -11.754300 -0.000006 -0.000006 -0.005403 -0.065315 -19.230900
0.000000 0.000000 0.000000 0.000000 0.000000 -0.000000 0.777813 92.138900 -1.858570 87.371900 -4.389430 2.940350 15.735700 0.000005 -0.000001 91.038900 85.064300 -93.400600 8.984550 -0.406207 -0.000000 2.114300 0.295226 -4.724270 16.377300 -0.000001 -0.000001 2.175830 -2.115040 -0.419046 6.456720 -0.000001 -0.000000 -5.963730 -1.202780 -4.251220 12.994200 -0.242716 4.980390 -87.483900 -6.519260 -68.841800 5.348090 -0.000007 -0.000001 1.940400 74.541000 -51.860900 24.328600 0.000019 0.000005 17.177100 0.318637 -88.969300 22.291600 -0.000001 0.000005 39.440700 5.577210 -32.177700 12.994500 -0.242716 -4.980390 92.463200 -5.091410 -64.139200 -5.348130 -0.000001 -0.000004 -57.404900 -55.251900 -95.237700 -24.328900 0.000322 -0.000009 0.185348 0.275917 -34.046500 -22.291500 -0.000108 -0.000004 20.591200 5.412790 -3.357690 -2.192480 -6.469440 -0.000000 -169.154000 -18.184600 -2.982380 39.081100 -0.000007 -0.000012 -0.186420 0.456134 22.229900 40.985400 -0.000006 -0.000013 -5.839970 0.780673 -64.046200 11.754300 -0.000000 0.000003 -0.000173 -0.001636 -16.639500 -2.192510 6.469440 -0.000001 174.069000 18.086400 178.098000 -39.081100 -0.002282 -0.040193 0.035817 -0.096546 18.600800 -40.985400 0.000008 0.000006 -1.550010 4.185320 -61.599500 -11.754300 -0.000006 -0.000006 -0.005364 -0.064947 -19.215900
0.000000 0.000000 0.000000 0.000000 0.000000 -0.000000 0.741761 92.143200 -1.877750 87.368400 -4.338140 3.006020 15.735700 0.000005 -0.000001 91.813300 85.060100 -94.188500 8.984550 -0.406207 -0.000000 2.122140 0.429282 -4.753720 16.377300 -0.000001 -0.000001 2.215270 -2.166640 -0.281820 6.456720 -0.000001 -0.000000 -5.855250 -1.254800 -4.326580 12.994200 -0.242716 4.980390 -87.484300 -6.526950 -68.867800 5.348090 -0.000007 -0.000001 1.435940 74.528700 -51.407800 24.328600 0.000019 0.000005 17.377700 0.324838 -88.962200 22.291600 -0.000001 0.000005 39.384800 5.579530 -32.054500 12.994500 -0.242716 -4.980390 92.580300 -5.309170 -64.032000 -5.348130 -0.000001 -0.000004 -57.938800 -55.241100 -99.024200 -24.328900 0.000322 -0.000009 0.423331 0.585777 -35.925300 -22.291500 -0.000108 -0.000004 20.655300 5.422070 -3.668980 -2.192480 -6.469440 -0.000000 -169.090000 -18.300000 -2.912630 39.081100 -0.000007 -0.000012 -0.189007 0.463350 22.191500 40.985400 -0.000006 -0.000013 -5.836540 0.891033 -63.986900 11.754300 -0.000000 0.000003 -0.000176 -0.001660 -16.640400 -2.192510 6.469440 -0.000001 174.074000 18.127300 178.160000 -39.081100 -0.002282 -0.040193 0.035706 -0.096096 18.622400 -40.985400 0.000008 0.000006 -1.543850 4.169720 -61.590900 -11.754300 -0.000006 -0.000006 -0.005572 -0.066894 -19.295300
0.000000 0.000000 0.000000 0.000000 0.000000 -0.000000 0.693299 92.146000 -1.909860 87.332200 -4.268660 3.023590 15.735700 0.000005 -0.000001 92.474600 85.067300 -94.855800 8.984550 -0.406207 -0.000000 2.106020 0.543157 -4.767820 16.377300 -0.000001 -0.000001 2.352590 -2.244080 -0.169966 6.456720 -0.000001 -0.000000 -5.916650 -1.269050 -4.352190 12.994200 -0.242716 4.980390 -87.486000 -6.517190 -68.851800 5.348090 -0.000007 -0.000001 1.384250 74.471800 -51.344500 24.328600 0.000019 0.000005 17.331200 0.324632 -88.959900 22.291600 -0.000001 0.000005 39.343400 5.580500 -32.001400 12.994500 -0.242716 -4.980390 92.711200 -5.552240 -63.920800 -5.348130 -0.000001 -0.000004 -58.439000 -55.132600 -102.822000 -24.328900 0.000322 -0.000009 0.624512 0.805480 -37.838700 -22.291500 -0.000108 -0.000004 20.776000 5.425030 -3.769410 -2.192480 -6.469440 -0.000000 -169.009000 -18.217800 -2.917510 39.081100 -0.000007 -0.000012 -0.190643 0.467978 22.165100 40.985400 -0.000006 -0.000013 -5.866560 0.953594 -63.935900 11.754300 -0.000000 0.000003 -0.000167 -0.001591 -16.637900 -2.192510 6.469440 -0.000001 174.133000 18.185400 178.165000 -39.081100 -0.002282 -0.040193 0.034843 -0.093504 18.628600 -40.985400 0.000008 0.000006 -1.639230 4.149220 -61.542900 -11.754300 -0.000006 -0.000006 -0.005724 -0.068304 -19.352700
